# xmcd CD database file
#
# Track frame offsets:
#	150
#	84982
#	129367
#
# Disc length: 2049 seconds
#
# Revision: 0
# Processed by: cddbd v1.5.1PL2 Copyright (c) Steve Scherf et al.
# Submitted via: CDex 1.51
#
DISCID=1807ff03
DTITLE=John Coltrane - Kulu Se Mama
DYEAR=1965
DGENRE=Jazz
TTITLE0=Kulu Se Mama (Juno Se Mama)
TTITLE1=Vigil
TTITLE2=Welcome
EXTD=YEAR: 1965
EXTT0=
EXTT1=
EXTT2=
PLAYORDER=
